<svg width="16" height="20" viewBox="0 0 16 20" fill="none" xmlns="http://www.w3.org/2000/svg">
<path d="M4.69505 13.0403C5.5223 13.0403 5.97648 12.5301 6.00081 11.6519L6.1468 3.84004C6.15491 3.72295 6.16302 3.59749 6.16302 3.50549C6.16302 2.56038 5.58719 2 4.69505 2C3.80292 2 3.21898 2.56038 3.21898 3.50549C3.21898 3.59749 3.22709 3.72295 3.22709 3.84004L3.38118 11.6519C3.41363 12.5301 3.85969 13.0403 4.69505 13.0403ZM11.3212 13.0403C12.1484 13.0403 12.6107 12.5301 12.635 11.6519L12.781 3.84004C12.781 3.72295 12.7891 3.59749 12.7891 3.50549C12.7891 2.56038 12.2214 2 11.3212 2C10.429 2 9.84509 2.56038 9.84509 3.50549C9.84509 3.59749 9.8532 3.72295 9.86131 3.84004L10.0154 11.6519C10.0397 12.5301 10.4858 13.0403 11.3212 13.0403ZM4.68694 18C5.61963 18 6.37388 17.264 6.37388 16.3356C6.37388 15.4072 5.61963 14.6628 4.68694 14.6628C3.75426 14.6628 3 15.4072 3 16.3356C3 17.264 3.75426 18 4.68694 18ZM11.3212 18C12.2457 18 13 17.264 13 16.3356C13 15.4072 12.2457 14.6628 11.3212 14.6628C10.3885 14.6628 9.62612 15.4072 9.62612 16.3356C9.62612 17.264 10.3885 18 11.3212 18Z" fill="#FF3B30"/>
</svg>
