<svg width="16" height="20" viewBox="0 0 16 20" fill="none" xmlns="http://www.w3.org/2000/svg">
<path d="M7.99659 3C7.38359 3 6.97492 3.46009 6.97492 4.13928V12.0923L7.03622 13.6771L5.75573 12.085L4.20279 10.4199C4.01889 10.2227 3.7805 10.0767 3.47399 10.0767C2.92229 10.0767 2.5 10.5076 2.5 11.1356C2.5 11.4204 2.60898 11.6907 2.82012 11.9244L7.24056 16.6714C7.43127 16.8758 7.71734 17 7.99659 17C8.27585 17 8.56192 16.8758 8.75263 16.6714L13.1799 11.9244C13.391 11.6907 13.5 11.4204 13.5 11.1356C13.5 10.5076 13.0777 10.0767 12.526 10.0767C12.2195 10.0767 11.9811 10.2227 11.7904 10.4199L10.2375 12.085L8.95697 13.6771L9.02508 12.0923V4.13928C9.02508 3.46009 8.6096 3 7.99659 3Z" fill="#8E8E93"/>
</svg>
